<svg xmlns="http://www.w3.org/2000/svg" width="1440" height="620" viewBox="0 0 1440 620">
<rect width="1440" height="620" fill="#ffffff"/>
<text x="40.0" y="44.0" font-family="Inter, sans-serif" font-size="15" fill="#1a1a1a" font-weight="700">Flow Map — 페이지 연결과 진입 규칙</text>
<text x="40.0" y="101.0" font-family="Inter, sans-serif" font-size="11" fill="#555555" font-weight="700">온보딩 (1회)</text>
<rect x="200.0" y="80.0" width="67.3" height="32.0" fill="#ffffff" rx="6" stroke="#1a1a1a" stroke-width="1.5"/>
<text x="213.0" y="101.0" font-family="Inter, sans-serif" font-size="12" fill="#1a1a1a" font-weight="600">1 Login</text>
<line x1="271.3" y1="96.0" x2="367.3" y2="96.0" stroke="#8a8a8a" stroke-width="1.2"/>
<path d="M367,96 l-7,-4 v8 z" fill="#8a8a8a"/>
<text x="319.3" y="88.0" font-family="Inter, sans-serif" font-size="9" fill="#8a8a8a" text-anchor="middle">Google 로그인</text>
<rect x="377.3" y="80.0" width="134.7" height="32.0" fill="#ffffff" rx="6" stroke="#1a1a1a" stroke-width="1.5"/>
<text x="390.3" y="101.0" font-family="Inter, sans-serif" font-size="12" fill="#1a1a1a" font-weight="600">2 First application</text>
<line x1="516.0" y1="96.0" x2="612.0" y2="96.0" stroke="#8a8a8a" stroke-width="1.2"/>
<path d="M612,96 l-7,-4 v8 z" fill="#8a8a8a"/>
<text x="564.0" y="88.0" font-family="Inter, sans-serif" font-size="9" fill="#8a8a8a" text-anchor="middle">Start applying</text>
<rect x="622.0" y="80.0" width="138.1" height="32.0" fill="#ffffff" rx="6" stroke="#1a1a1a" stroke-width="1.5"/>
<text x="635.0" y="101.0" font-family="Inter, sans-serif" font-size="12" fill="#1a1a1a" font-weight="600">3 Today's Briefing</text>
<text x="770.1" y="101.0" font-family="Inter, sans-serif" font-size="10" fill="#8a8a8a">이후 기본 진입 화면 (분석 대기 화면 없음)</text>
<text x="40.0" y="161.0" font-family="Inter, sans-serif" font-size="11" fill="#555555" font-weight="700">브리핑 내부</text>
<rect x="200.0" y="140.0" width="78.1" height="32.0" fill="#ffffff" rx="6" stroke="#c4c4c4" stroke-width="1" stroke-dasharray="4,3"/>
<text x="213.0" y="161.0" font-family="Inter, sans-serif" font-size="12" fill="#8a8a8a">카드 클릭</text>
<line x1="282.1" y1="156.0" x2="328.1" y2="156.0" stroke="#8a8a8a" stroke-width="1.2"/>
<path d="M328,156 l-7,-4 v8 z" fill="#8a8a8a"/>
<rect x="338.1" y="140.0" width="241.3" height="32.0" fill="#ffffff" rx="6" stroke="#c4c4c4" stroke-width="1" stroke-dasharray="4,3"/>
<text x="351.1" y="161.0" font-family="Inter, sans-serif" font-size="12" fill="#8a8a8a">우측 상세/처리 패널 · 페이지 이동 없음</text>
<rect x="599.4" y="140.0" width="154.2" height="32.0" fill="#ffffff" rx="6" stroke="#c4c4c4" stroke-width="1" stroke-dasharray="4,3"/>
<text x="612.4" y="161.0" font-family="Inter, sans-serif" font-size="12" fill="#8a8a8a">사이드바 섹션 서브목록</text>
<line x1="757.5" y1="156.0" x2="833.5" y2="156.0" stroke="#8a8a8a" stroke-width="1.2"/>
<path d="M834,156 l-7,-4 v8 z" fill="#8a8a8a"/>
<text x="795.5" y="148.0" font-family="Inter, sans-serif" font-size="9" fill="#8a8a8a" text-anchor="middle">섹션 앵커</text>
<rect x="859.5" y="140.0" width="121.8" height="32.0" fill="#ffffff" rx="6" stroke="#c4c4c4" stroke-width="1" stroke-dasharray="4,3"/>
<text x="872.5" y="161.0" font-family="Inter, sans-serif" font-size="12" fill="#8a8a8a">Empty state 버튼</text>
<line x1="985.3" y1="156.0" x2="1025.3" y2="156.0" stroke="#8a8a8a" stroke-width="1.2"/>
<path d="M1025,156 l-7,-4 v8 z" fill="#8a8a8a"/>
<text x="1031.3" y="161.0" font-family="Inter, sans-serif" font-size="11" fill="#1a1a1a" font-weight="600">7 Priority / 9 Settings</text>
<text x="40.0" y="221.0" font-family="Inter, sans-serif" font-size="11" fill="#555555" font-weight="700">브리핑 → 이동</text>
<rect x="200.0" y="200.0" width="87.4" height="32.0" fill="#ffffff" rx="6" stroke="#1a1a1a" stroke-width="1.5"/>
<text x="213.0" y="221.0" font-family="Inter, sans-serif" font-size="12" fill="#1a1a1a" font-weight="600">3 Briefing</text>
<line x1="291.4" y1="216.0" x2="481.4" y2="216.0" stroke="#8a8a8a" stroke-width="1.2"/>
<path d="M481,216 l-7,-4 v8 z" fill="#8a8a8a"/>
<text x="386.4" y="208.0" font-family="Inter, sans-serif" font-size="9" fill="#8a8a8a" text-anchor="middle">사이드바 · View all priority items</text>
<rect x="491.4" y="200.0" width="84.8" height="32.0" fill="#ffffff" rx="6" stroke="#1a1a1a" stroke-width="1.5"/>
<text x="504.4" y="221.0" font-family="Inter, sans-serif" font-size="12" fill="#1a1a1a" font-weight="600">7 Priority</text>
<rect x="616.2" y="200.0" width="182.0" height="32.0" fill="#ffffff" rx="6" stroke="#1a1a1a" stroke-width="1.5"/>
<text x="629.2" y="221.0" font-family="Inter, sans-serif" font-size="12" fill="#1a1a1a" font-weight="600">3 Needs approval [Review]</text>
<line x1="802.2" y1="216.0" x2="848.2" y2="216.0" stroke="#8a8a8a" stroke-width="1.2"/>
<path d="M848,216 l-7,-4 v8 z" fill="#8a8a8a"/>
<rect x="858.2" y="200.0" width="133.5" height="32.0" fill="#ffffff" rx="6" stroke="#1a1a1a" stroke-width="1.5"/>
<text x="871.2" y="221.0" font-family="Inter, sans-serif" font-size="12" fill="#1a1a1a" font-weight="600">10 Cleanup Review</text>
<text x="40.0" y="281.0" font-family="Inter, sans-serif" font-size="11" fill="#555555" font-weight="700">기록 / Undo</text>
<rect x="200.0" y="260.0" width="148.6" height="32.0" fill="#ffffff" rx="6" stroke="#1a1a1a" stroke-width="1.5"/>
<text x="213.0" y="281.0" font-family="Inter, sans-serif" font-size="12" fill="#1a1a1a" font-weight="600">10 Cleanup 승인·Undo</text>
<line x1="352.6" y1="276.0" x2="412.6" y2="276.0" stroke="#8a8a8a" stroke-width="1.2"/>
<path d="M413,276 l-7,-4 v8 z" fill="#8a8a8a"/>
<text x="382.6" y="268.0" font-family="Inter, sans-serif" font-size="9" fill="#8a8a8a" text-anchor="middle">기록</text>
<rect x="422.6" y="260.0" width="182.2" height="32.0" fill="#ffffff" rx="6" stroke="#c4c4c4" stroke-width="1" stroke-dasharray="4,3"/>
<text x="435.6" y="281.0" font-family="Inter, sans-serif" font-size="12" fill="#8a8a8a">Activity Log — v2 제작 예정</text>
<text x="618.9" y="281.0" font-family="Inter, sans-serif" font-size="10" fill="#8a8a8a">상세 패널 Undo · Organized 섹션 Undo도 동일하게 기록</text>
<text x="40.0" y="351.0" font-family="Inter, sans-serif" font-size="11" fill="#555555" font-weight="700">알림 진입 (8)</text>
<rect x="200.0" y="374.0" width="148.9" height="32.0" fill="#ffffff" rx="6" stroke="#1a1a1a" stroke-width="1.5"/>
<text x="213.0" y="395.0" font-family="Inter, sans-serif" font-size="12" fill="#1a1a1a" font-weight="600">Browser notification</text>
<line x1="348.9" y1="390.0" x2="382.9" y2="346.0" stroke="#8a8a8a" stroke-width="1"/>
<path d="M383,346 l-7,-3 v6 z" fill="#8a8a8a"/>
<text x="392.9" y="350.0" font-family="Inter, sans-serif" font-size="10.5" fill="#8a8a8a">누락 중요 메일  →</text>
<text x="484.0" y="350.0" font-family="Inter, sans-serif" font-size="10.5" fill="#1a1a1a" font-weight="600">7 Priority — Missed 필터 적용</text>
<line x1="348.9" y1="390.0" x2="382.9" y2="372.0" stroke="#8a8a8a" stroke-width="1"/>
<path d="M383,372 l-7,-3 v6 z" fill="#8a8a8a"/>
<text x="392.9" y="376.0" font-family="Inter, sans-serif" font-size="10.5" fill="#8a8a8a">단일 메일 리마인더  →</text>
<text x="505.0" y="376.0" font-family="Inter, sans-serif" font-size="10.5" fill="#1a1a1a" font-weight="600">3 Briefing — 해당 메일 상세 패널 오픈</text>
<line x1="348.9" y1="390.0" x2="382.9" y2="398.0" stroke="#8a8a8a" stroke-width="1"/>
<path d="M383,398 l-7,-3 v6 z" fill="#8a8a8a"/>
<text x="392.9" y="402.0" font-family="Inter, sans-serif" font-size="10.5" fill="#8a8a8a">새 브리핑  →</text>
<text x="459.5" y="402.0" font-family="Inter, sans-serif" font-size="10.5" fill="#1a1a1a" font-weight="600">3 Today's Briefing</text>
<line x1="348.9" y1="390.0" x2="382.9" y2="424.0" stroke="#8a8a8a" stroke-width="1"/>
<path d="M383,424 l-7,-3 v6 z" fill="#8a8a8a"/>
<text x="392.9" y="428.0" font-family="Inter, sans-serif" font-size="10.5" fill="#8a8a8a">정리 승인  →</text>
<text x="459.5" y="428.0" font-family="Inter, sans-serif" font-size="10.5" fill="#1a1a1a" font-weight="600">10 Cleanup Review</text>
<line x1="348.9" y1="390.0" x2="382.9" y2="450.0" stroke="#8a8a8a" stroke-width="1"/>
<path d="M383,450 l-7,-3 v6 z" fill="#8a8a8a"/>
<text x="392.9" y="454.0" font-family="Inter, sans-serif" font-size="10.5" fill="#8a8a8a">권한/동기화 오류  →</text>
<text x="496.9" y="454.0" font-family="Inter, sans-serif" font-size="10.5" fill="#1a1a1a" font-weight="600">9 Settings › Connected accounts 계정 딥링크</text>
<text x="40.0" y="517.0" font-family="Inter, sans-serif" font-size="11" fill="#555555" font-weight="700">설정 반영</text>
<rect x="200.0" y="496.0" width="84.8" height="32.0" fill="#ffffff" rx="6" stroke="#1a1a1a" stroke-width="1.5"/>
<text x="213.0" y="517.0" font-family="Inter, sans-serif" font-size="12" fill="#1a1a1a" font-weight="600">9 Settings</text>
<text x="296.8" y="517.0" font-family="Inter, sans-serif" font-size="10.5" fill="#8a8a8a">계정 이름·색·토글 변경 → 상단 계정 셀렉터 · 계정 소제목 · 카드 색 · 요약 표시에 즉시 반영</text>
<text x="40.0" y="569.0" font-family="Inter, sans-serif" font-size="11" fill="#555555" font-weight="700">Gmail 경계</text>
<text x="200.0" y="562.0" font-family="Inter, sans-serif" font-size="10.5" fill="#555555">섹션 이동 / Done / Later = 서비스 내부 상태만 변경 (Gmail 무변경).</text>
<text x="200.0" y="578.0" font-family="Inter, sans-serif" font-size="10.5" fill="#555555">Gmail 변경(라벨·아카이브)은 상세 패널 Gmail handling 또는 10 Cleanup 승인으로만 발생 — 항상 Activity Log 기록 + Undo.</text>
</svg>