<svg xmlns="http://www.w3.org/2000/svg" width="1440" height="860" viewBox="0 0 1440 860">
<rect width="1440" height="860" fill="#ffffff"/>
<rect x="0.0" y="0.0" width="210.0" height="860.0" fill="#fafafa"/>
<line x1="210.0" y1="0.0" x2="210.0" y2="860.0" stroke="#d9d9d9" stroke-width="1"/>
<text x="16.0" y="30.0" font-family="Inter, sans-serif" font-size="13" fill="#1a1a1a" font-weight="700">My</text>
<text x="16.0" y="46.0" font-family="Inter, sans-serif" font-size="10" fill="#8a8a8a">woomacho@gmail.com</text>
<line x1="12.0" y1="58.0" x2="198.0" y2="58.0" stroke="#d9d9d9" stroke-width="1"/>
<rect x="0.0" y="66.0" width="210.0" height="27.0" fill="#efefef"/>
<rect x="0.0" y="66.0" width="3.0" height="27.0" fill="#1a1a1a"/>
<text x="18.0" y="84.0" font-family="Inter, sans-serif" font-size="12" fill="#1a1a1a" font-weight="700">Today's Briefing</text>
<text x="196.0" y="84.0" font-family="Inter, sans-serif" font-size="10" fill="#8a8a8a" text-anchor="end">4</text>
<line x1="26.0" y1="102.0" x2="26.0" y2="250.0" stroke="#d9d9d9" stroke-width="1"/>
<text x="36.0" y="114.0" font-family="Inter, sans-serif" font-size="11" fill="#8a8a8a">New important items</text>
<text x="196.0" y="114.0" font-family="Inter, sans-serif" font-size="9.5" fill="#8a8a8a" text-anchor="end">2</text>
<text x="36.0" y="136.0" font-family="Inter, sans-serif" font-size="11" fill="#8a8a8a">Needs reply</text>
<text x="196.0" y="136.0" font-family="Inter, sans-serif" font-size="9.5" fill="#8a8a8a" text-anchor="end">1</text>
<text x="36.0" y="158.0" font-family="Inter, sans-serif" font-size="11" fill="#8a8a8a">Can wait</text>
<text x="196.0" y="158.0" font-family="Inter, sans-serif" font-size="9.5" fill="#8a8a8a" text-anchor="end">1</text>
<text x="36.0" y="180.0" font-family="Inter, sans-serif" font-size="11" fill="#8a8a8a">Organized</text>
<text x="36.0" y="202.0" font-family="Inter, sans-serif" font-size="11" fill="#8a8a8a">Needs approval</text>
<text x="196.0" y="202.0" font-family="Inter, sans-serif" font-size="9.5" fill="#8a8a8a" text-anchor="end">1</text>
<text x="36.0" y="224.0" font-family="Inter, sans-serif" font-size="11" fill="#8a8a8a">Payments</text>
<text x="36.0" y="246.0" font-family="Inter, sans-serif" font-size="11" fill="#8a8a8a" font-style="italic">+ Add section</text>
<text x="18.0" y="272.0" font-family="Inter, sans-serif" font-size="12" fill="#555555">Priority</text>
<text x="18.0" y="302.0" font-family="Inter, sans-serif" font-size="12" fill="#555555">Cleanup Review</text>
<text x="18.0" y="332.0" font-family="Inter, sans-serif" font-size="12" fill="#555555">Activity Log</text>
<text x="18.0" y="362.0" font-family="Inter, sans-serif" font-size="12" fill="#555555">Settings</text>
<rect x="210.0" y="0.0" width="1230.0" height="56.0" fill="#ffffff"/>
<line x1="210.0" y1="56.0" x2="1440.0" y2="56.0" stroke="#d9d9d9" stroke-width="1"/>
<text x="230.0" y="35.0" font-family="Inter, sans-serif" font-size="16" fill="#1a1a1a" font-weight="700">Today's Briefing</text>
<rect x="389.0" y="14.0" width="112.2" height="28.0" fill="#ffffff" rx="5" stroke="#c4c4c4" stroke-width="1"/>
<text x="401.0" y="32.0" font-family="Inter, sans-serif" font-size="12" fill="#1a1a1a">All accounts</text>
<text x="483.3" y="32.0" font-family="Inter, sans-serif" font-size="10" fill="#555555">▾</text>
<rect x="1356.0" y="17.0" width="64.0" height="22.0" fill="#fafafa" rx="11" stroke="#c4c4c4" stroke-width="1"/>
<text x="1366.0" y="32.0" font-family="Inter, sans-serif" font-size="11" fill="#555555">Notif on</text>
<rect x="1249.9" y="17.0" width="98.1" height="22.0" fill="#1e1e1e" rx="11"/>
<text x="1259.9" y="32.0" font-family="Inter, sans-serif" font-size="11" fill="#ffffff">New briefing 1</text>
<text x="230.0" y="92.0" font-family="Inter, sans-serif" font-size="13" fill="#1a1a1a" font-weight="700">New important items</text>
<text x="1394.0" y="92.0" font-family="Inter, sans-serif" font-size="12" fill="#8a8a8a">···</text>
<circle cx="235.0" cy="111.0" r="4" fill="#dddddd" stroke="#8a8a8a" stroke-width="1" stroke-dasharray="2,2"/>
<text x="246.0" y="115.0" font-family="Inter, sans-serif" font-size="11" fill="#555555" font-weight="700">Work</text>
<rect x="230.0" y="122.0" width="1180.0" height="90.0" fill="#ffffff" rx="6" stroke="#d9d9d9" stroke-width="1"/>
<rect x="230.0" y="122.0" width="4.0" height="90.0" fill="#1a1a1a" rx="2"/>
<text x="244.0" y="144.0" font-family="Inter, sans-serif" font-size="13" fill="#1a1a1a" font-weight="600">PR 리뷰 요청</text>
<rect x="1363.6" y="130.0" width="34.4" height="16.0" fill="#1e1e1e" rx="8"/>
<text x="1370.6" y="142.0" font-family="Inter, sans-serif" font-size="10" fill="#ffffff">New</text>
<text x="244.0" y="164.0" font-family="Inter, sans-serif" font-size="12" fill="#1a1a1a" font-weight="700">Reply needed</text>
<text x="325.5" y="164.0" font-family="Inter, sans-serif" font-size="12" fill="#555555"> · Inbox · Label: PR Review</text>
<rect x="244.0" y="178.0" width="46.6" height="24.0" fill="#ffffff" rx="4" stroke="#c4c4c4" stroke-width="1"/>
<text x="254.0" y="194.0" font-family="Inter, sans-serif" font-size="11" fill="#1a1a1a">Done</text>
<rect x="296.6" y="178.0" width="50.4" height="24.0" fill="#ffffff" rx="4" stroke="#c4c4c4" stroke-width="1"/>
<text x="306.6" y="194.0" font-family="Inter, sans-serif" font-size="11" fill="#1a1a1a">Later</text>
<rect x="353.0" y="178.0" width="56.5" height="24.0" fill="#ffffff" rx="4" stroke="#c4c4c4" stroke-width="1"/>
<text x="363.0" y="194.0" font-family="Inter, sans-serif" font-size="11" fill="#1a1a1a">Move ▾</text>
<circle cx="235.0" cy="229.0" r="4" fill="#7a7a7a"/>
<text x="246.0" y="233.0" font-family="Inter, sans-serif" font-size="11" fill="#555555" font-weight="700">Personal</text>
<g opacity="0.62">
<rect x="230.0" y="240.0" width="1180.0" height="90.0" fill="#ffffff" rx="6" stroke="#d9d9d9" stroke-width="1"/>
<text x="244.0" y="262.0" font-family="Inter, sans-serif" font-size="13" fill="#1a1a1a" font-weight="600">카드 결제 확인 안내</text>
<rect x="1359.8" y="248.0" width="38.2" height="16.0" fill="#ffffff" rx="8" stroke="#c4c4c4" stroke-width="1"/>
<text x="1366.8" y="260.0" font-family="Inter, sans-serif" font-size="10" fill="#555555">Seen</text>
<text x="244.0" y="282.0" font-family="Inter, sans-serif" font-size="12" fill="#1a1a1a" font-weight="700">Check needed</text>
<text x="328.2" y="282.0" font-family="Inter, sans-serif" font-size="12" fill="#555555"> · Inbox</text>
<rect x="244.0" y="296.0" width="46.6" height="24.0" fill="#ffffff" rx="4" stroke="#c4c4c4" stroke-width="1"/>
<text x="254.0" y="312.0" font-family="Inter, sans-serif" font-size="11" fill="#1a1a1a">Done</text>
<rect x="296.6" y="296.0" width="50.4" height="24.0" fill="#ffffff" rx="4" stroke="#c4c4c4" stroke-width="1"/>
<text x="306.6" y="312.0" font-family="Inter, sans-serif" font-size="11" fill="#1a1a1a">Later</text>
</g>
<text x="230.0" y="360.0" font-family="Inter, sans-serif" font-size="13" fill="#1a1a1a" font-weight="700">Needs reply</text>
<text x="1394.0" y="360.0" font-family="Inter, sans-serif" font-size="12" fill="#8a8a8a">···</text>
<circle cx="235.0" cy="379.0" r="4" fill="#dddddd" stroke="#8a8a8a" stroke-width="1" stroke-dasharray="2,2"/>
<text x="246.0" y="383.0" font-family="Inter, sans-serif" font-size="11" fill="#555555" font-weight="700">Work</text>
<g opacity="0.55">
<rect x="230.0" y="390.0" width="1180.0" height="90.0" fill="#ffffff" rx="6" stroke="#d9d9d9" stroke-width="1"/>
<text x="244.0" y="412.0" font-family="Inter, sans-serif" font-size="13" fill="#1a1a1a" font-weight="600">미팅 일정 조율</text>
<rect x="1322.0" y="398.0" width="76.0" height="16.0" fill="#ffffff" rx="8" stroke="#c4c4c4" stroke-width="1"/>
<text x="1329.0" y="410.0" font-family="Inter, sans-serif" font-size="10" fill="#555555">Remind 14:00</text>
<text x="244.0" y="432.0" font-family="Inter, sans-serif" font-size="12" fill="#1a1a1a" font-weight="700">Reply needed</text>
<text x="325.5" y="432.0" font-family="Inter, sans-serif" font-size="12" fill="#555555"> · Inbox</text>
<rect x="244.0" y="446.0" width="82.7" height="24.0" fill="#ffffff" rx="4" stroke="#c4c4c4" stroke-width="1"/>
<text x="254.0" y="462.0" font-family="Inter, sans-serif" font-size="11" fill="#1a1a1a">Remind now</text>
<rect x="332.7" y="446.0" width="94.4" height="24.0" fill="#ffffff" rx="4" stroke="#c4c4c4" stroke-width="1"/>
<text x="342.7" y="462.0" font-family="Inter, sans-serif" font-size="11" fill="#1a1a1a">Change time ▾</text>
</g>
<rect x="230.0" y="500.0" width="1180.0" height="40.0" fill="#fafafa" rx="5" stroke="#d9d9d9" stroke-width="1"/>
<rect x="230.0" y="500.0" width="4.0" height="40.0" fill="#1a1a1a" rx="2"/>
<text x="246.0" y="525.0" font-family="Inter, sans-serif" font-size="12" fill="#1a1a1a" font-weight="700">▸ Done today (3) — 접힌 완료 영역</text>
<text x="1220.0" y="525.0" font-family="Inter, sans-serif" font-size="11" fill="#8a8a8a" text-anchor="end">방금 완료: 뉴스레터 구독 확인</text>
<rect x="1230.0" y="508.0" width="46.6" height="24.0" fill="#ffffff" rx="4" stroke="#c4c4c4" stroke-width="1"/>
<text x="1240.0" y="524.0" font-family="Inter, sans-serif" font-size="11" fill="#1a1a1a">Undo</text>
<text x="230.0" y="566.0" font-family="Inter, sans-serif" font-size="11" fill="#8a8a8a">상태 규칙: New = 강조(좌측 바) · Seen = 62% 투명 유지 · Done = 접힌 영역 + Undo · Remind later = 지정 시각까지 하강</text>
</svg>